<svg xmlns="http://www.w3.org/2000/svg" xmlns:xlink="http://www.w3.org/1999/xlink" id="a" width="250" height="100" viewBox="0 0 250 100"><defs><style>.g{fill:url(#d);}.h{fill:url(#f);}.i{mask:url(#e);}.j{mask:url(#b);}.k{filter:url(#c);}.l{fill:#e59e38;}.m{fill:none;stroke:#e59e38;stroke-linecap:round;stroke-miterlimit:10;stroke-width:1.3px;}</style><filter id="c" color-interpolation-filters="sRGB" filterUnits="userSpaceOnUse"><feColorMatrix values="-1 0 0 0 1 0 -1 0 0 1 0 0 -1 0 1 0 0 0 1 0"/></filter><linearGradient id="d" x1="125.26" y1="65.65" x2="125.26" y2="37.66" gradientTransform="matrix(1, 0, 0, 1, 0, 0)" gradientUnits="userSpaceOnUse"><stop offset=".1" stop-color="#fff"/><stop offset=".13" stop-color="#ececec"/><stop offset=".23" stop-color="#b5b5b5"/><stop offset=".33" stop-color="#858585"/><stop offset=".43" stop-color="#5c5c5c"/><stop offset=".54" stop-color="#3a3a3a"/><stop offset=".65" stop-color="#202020"/><stop offset=".76" stop-color="#0e0e0e"/><stop offset=".87" stop-color="#030303"/><stop offset="1" stop-color="#000"/></linearGradient><mask id="b" x="30.8" y="31.66" width="188.91" height="28.04" maskUnits="userSpaceOnUse"><g class="k"><rect class="g" x="30.8" y="31.66" width="188.91" height="28.04"/></g></mask><linearGradient id="f" x1="122.71" y1="59.47" x2="122.71" y2="84.81" gradientTransform="matrix(1, 0, 0, 1, 0, 0)" gradientUnits="userSpaceOnUse"><stop offset="0" stop-color="#fff"/><stop offset=".24" stop-color="silver"/><stop offset="1" stop-color="#000"/></linearGradient><mask id="e" x="55.79" y="62.67" width="133.85" height="20.13" maskUnits="userSpaceOnUse"><g class="k"><rect class="h" x="55.79" y="62.67" width="133.85" height="20.13"/></g></mask></defs><g class="j"><g><path class="l" d="M38.61,49.56c.11,.97,.3,1.46,.7,2,.65,.81,1.78,1.27,3.16,1.27,2.08,0,3.32-.92,3.32-2.43,0-.84-.43-1.57-1.13-1.89-.57-.27-1.24-.46-4.05-1.11-2.48-.54-3.35-.86-4.35-1.57-1.7-1.19-2.62-3-2.62-5.18,0-4.16,3.35-6.78,8.67-6.78,3.43,0,6.05,1.05,7.5,3.08,.67,.89,1,1.7,1.35,3.24l-5.72,.62c-.32-1.75-1.3-2.48-3.35-2.48-1.65,0-2.86,.89-2.86,2.13,0,.76,.41,1.32,1.27,1.73q.54,.24,3.72,.89c2.05,.43,3.35,.89,4.37,1.54,1.94,1.21,2.92,3.02,2.92,5.51,0,2.02-.65,3.75-1.89,4.97-1.57,1.51-3.94,2.29-7.1,2.29-2.29,0-4.56-.49-6.02-1.32-1.35-.76-2.35-1.92-2.92-3.46-.27-.65-.41-1.27-.59-2.51l5.61-.54Z"/><path class="l" d="M81.6,40.41l.02,4.05v8.34l.02,4.05h-5.18v-1.16c0-.13,0-.54,.03-.73-1.78,1.67-3.32,2.32-5.61,2.32-1.81,0-3.27-.51-4.29-1.51-1.08-1.08-1.54-2.4-1.54-4.54v-6.78l-.02-4.05h5.2v9.58c0,1.11,.11,1.59,.44,2.02,.38,.49,.97,.76,1.75,.76,1.49,0,3-1.05,4.05-2.78v-5.53l-.04-4.05h5.17Z"/><path class="l" d="M100.82,42.3c1.7-1.62,3.35-2.29,5.56-2.29,1.86,0,3.35,.51,4.35,1.51,1.08,1.08,1.54,2.4,1.54,4.53v10.68h-5.4s.22-2.29,.22-3.93v-5.53c0-1.08-.11-1.54-.43-2-.35-.49-.97-.76-1.78-.76-1.51,0-2.86,.94-4.02,2.83v5.45l.04,4.08h-5.2v-12.39l-.04-4.08h5.21"/><path class="l" d="M138.24,45.27c-1.24-.38-1.92-.51-2.75-.51-1.38,0-2.43,.49-3.21,1.46-.51,.65-.7,1.21-.81,2.4v4.21c0,1.73,.05,2.75,.22,4.05h-5.43l.06-4.08v-8.31l-.06-4.08h5.21v2.13c1.32-1.73,2.94-2.46,5.4-2.46,.86,0,1.4,.05,2.67,.32l-1.3,4.86Z"/><path class="l" d="M158.69,40.41s-.28-.49-.13,4.08v8.31l.03,4.08h-4.89v-12.39c.05-3.88-.14-4.08-.14-4.08h5.13Zm.37-5.43c0,1.62-1.31,2.93-2.93,2.93s-2.93-1.31-2.93-2.93,1.31-2.93,2.93-2.93,2.93,1.31,2.93,2.93Z"/><path class="l" d="M205.34,50.15c.27,2.19,1.54,3.35,3.67,3.35,1.08,0,2.02-.35,2.73-1,.41-.38,.59-.67,.81-1.38l4.7,1.32c-.62,1.4-1.03,2.02-1.78,2.78-1.54,1.51-3.7,2.29-6.37,2.29s-4.72-.75-6.26-2.29c-1.59-1.62-2.46-3.91-2.46-6.59,0-5.35,3.43-8.88,8.58-8.88,4.21,0,7.15,2.29,8.1,6.32,.22,.86,.32,2,.41,3.54,0,.11,0,.27,.03,.54h-12.15Zm7.02-3.73c-.38-1.73-1.54-2.65-3.4-2.65s-3.08,.86-3.54,2.65h6.94Z"/><path class="l" d="M178.7,51.26c.08,.74,.22,1.1,.53,1.51,.49,.61,1.35,.96,2.39,.96,1.57,0,2.52-.7,2.52-1.84,0-.63-.33-1.19-.86-1.43-.43-.21-.94-.35-3.07-.84-1.88-.41-2.54-.65-3.29-1.19-1.29-.9-1.98-2.27-1.98-3.93,0-3.15,2.54-5.13,6.57-5.13,2.6,0,4.58,.8,5.69,2.33,.51,.67,.76,1.29,1.02,2.45l-4.34,.47c-.25-1.33-.98-1.88-2.54-1.88-1.25,0-2.17,.67-2.17,1.62,0,.57,.31,1,.96,1.31q.41,.18,2.82,.67c1.55,.33,2.54,.67,3.31,1.17,1.47,.92,2.21,2.29,2.21,4.17,0,1.53-.49,2.84-1.43,3.76-1.19,1.15-2.99,1.74-5.38,1.74-1.74,0-3.46-.37-4.56-1-1.02-.57-1.78-1.45-2.21-2.62-.2-.49-.31-.96-.45-1.9l4.26-.41Z"/></g></g><g class="i"><path class="m" d="M59.89,63.4c76.95,.44,127.14,1.41,127.19,3.2,.06,2.5-97.47,5.81-97.37,7.57,.07,1.33,55.84,.85,55.86,1.75,.01,.68-32.33,1.01-32.46,3.2-.03,.57,2.12,1.33,9.06,2.33"/></g></svg>